<?xml version="1.0" encoding="UTF-8"?>
<svg width="120px" height="120px" viewBox="0 0 120 120" version="1.1" xmlns="http://www.w3.org/2000/svg" xmlns:xlink="http://www.w3.org/1999/xlink">
    <title>bottom</title>
    <defs>
        <path d="M0,0 L120,0 L120,120 L0,120 L0,0 Z" id="path-1"></path>
    </defs>
    <g id="bottom" stroke="none" fill="none" xlink:href="#path-1" fill-rule="evenodd" stroke-width="1">
        <g id="􀄫" transform="translate(12, 12)" fill="color(display-p3 1.000 1.000 1.000)">
            <path d="M86.0273438,47.6796875 C86.0273438,46.15625 85.3632813,44.5546875 84.3085938,43.5 L58.8789062,18.109375 C57.6679688,16.8984375 56.2617187,16.3125 54.8945313,16.3125 C51.5742187,16.3125 49.3085938,18.6171875 49.3085938,21.6640625 C49.3085938,23.3828125 50.0507813,24.7109375 51.1054688,25.7265625 L59.8554687,34.515625 L68.4882812,42.484375 L59.9726562,42.015625 L15.8320313,42.015625 C12.3164062,42.015625 9.97265625,44.28125 9.97265625,47.6796875 C9.97265625,51.0390625 12.3164062,53.34375 15.8320313,53.34375 L59.9726562,53.34375 L68.5273438,52.875 L59.8554687,60.84375 L51.1054688,69.59375 C50.0507813,70.609375 49.3085938,71.9765625 49.3085938,73.65625 C49.3085938,76.703125 51.5742187,79.0078125 54.8945313,79.0078125 C56.2617187,79.0078125 57.6679688,78.421875 58.8398438,77.25 L84.3085938,51.859375 C85.3632813,50.8046875 86.0273438,49.203125 86.0273438,47.6796875 Z" id="Path" fill-rule="nonzero"></path>
        </g>
    </g>
</svg>